<svg width="36" height="37" viewBox="0 0 36 37" fill="none" xmlns="http://www.w3.org/2000/svg">
<path d="M34.7143 18.4999C34.7143 22.9328 32.9534 27.1842 29.8188 30.3187C26.6843 33.4533 22.433 35.2142 18.0001 35.2142C13.5671 35.2142 9.3158 33.4533 6.18127 30.3187C3.04673 27.1842 1.28577 22.9328 1.28577 18.4999M34.7143 18.4999C34.7143 14.067 32.9534 9.81568 29.8188 6.68115C26.6843 3.54661 22.433 1.78564 18.0001 1.78564C13.5671 1.78564 9.3158 3.54661 6.18127 6.68115C3.04673 9.81568 1.28577 14.067 1.28577 18.4999M34.7143 18.4999H1.28577" stroke="white" stroke-width="3" stroke-linecap="round" stroke-linejoin="round"/>
<path d="M24.4287 18.4999C24.1129 24.6122 21.8616 30.4657 18.0001 35.2142C14.1386 30.4657 11.8873 24.6122 11.5715 18.4999C11.8873 12.3877 14.1386 6.53418 18.0001 1.78564C21.8616 6.53418 24.1129 12.3877 24.4287 18.4999Z" stroke="white" stroke-width="3" stroke-linecap="round" stroke-linejoin="round"/>
</svg>
