<svg width="37" height="37" viewBox="0 0 37 37" fill="none" xmlns="http://www.w3.org/2000/svg">
<path d="M3.03883 9.38356C3.03883 8.57761 3.359 7.80467 3.92889 7.23478C4.49878 6.66489 5.27172 6.34473 6.07767 6.34473H30.3883C31.1943 6.34473 31.9672 6.66489 32.5371 7.23478C33.107 7.80467 33.4272 8.57761 33.4272 9.38356V27.6166C33.4272 28.4225 33.107 29.1954 32.5371 29.7653C31.9672 30.3352 31.1943 30.6554 30.3883 30.6554H6.07767C5.27172 30.6554 4.49878 30.3352 3.92889 29.7653C3.359 29.1954 3.03883 28.4225 3.03883 27.6166V9.38356ZM8.38566 9.38356L18.233 18.0002L28.0803 9.38356H8.38566ZM30.3883 11.4029L19.2343 21.1636C18.9572 21.4064 18.6014 21.5402 18.233 21.5402C17.8646 21.5402 17.5088 21.4064 17.2317 21.1636L6.07767 11.4029V27.6166H30.3883V11.4029Z" fill="white"/>
</svg>
