<svg width="32" height="31" viewBox="0 0 32 31" fill="none" xmlns="http://www.w3.org/2000/svg">
<path d="M4.14948 3.08007H10.7984L12.9412 8.5172L9.49824 10.8465C9.29549 10.9838 9.12927 11.1698 9.01431 11.3879C8.89936 11.606 8.83924 11.8495 8.83927 12.0969C8.84371 12.2381 8.83927 12.0984 8.83927 12.0984V12.1299C8.84001 12.1971 8.84298 12.2643 8.84816 12.3313C8.85605 12.4555 8.87333 12.6209 8.89999 12.8272C8.95774 13.233 9.0688 13.792 9.285 14.4503C9.72037 15.7727 10.5733 17.4844 12.2348 19.1706C13.8963 20.8567 15.583 21.7223 16.8846 22.1641C17.5347 22.3835 18.0841 22.4948 18.4869 22.5549C18.7141 22.5884 18.943 22.6084 19.1725 22.615L19.1918 22.6165H19.2036C19.2036 22.6165 19.3695 22.6075 19.2051 22.6165C19.48 22.6163 19.7495 22.5385 19.9833 22.3917C20.2171 22.245 20.4061 22.035 20.529 21.7854L21.5211 19.7717L28.0901 20.8838V27.3759C24.9641 27.8342 16.5203 28.2866 9.88622 21.554C3.25209 14.8215 3.69634 6.25098 4.14948 3.08007ZM11.909 12.8272L14.5849 11.0179C15.1502 10.6352 15.5686 10.0669 15.7701 9.40831C15.9715 8.7497 15.9436 8.04084 15.6911 7.40062L13.5483 1.96348C13.3284 1.4058 12.9489 0.927776 12.4588 0.591069C11.9686 0.254362 11.3903 0.0744226 10.7984 0.0744629H4.07247C2.7264 0.0744629 1.46029 1.02273 1.23964 2.50449C0.73616 5.87377 0.0534971 15.8253 7.79232 23.679C15.5312 31.5326 25.3372 30.8383 28.6572 30.3289C30.1173 30.1034 31.0517 28.82 31.0517 27.454V20.8838C31.0518 20.1723 30.8032 19.4838 30.3501 18.9409C29.897 18.398 29.2688 18.0358 28.5773 17.9187L22.0083 16.8082C21.3835 16.7023 20.7418 16.8026 20.1773 17.0941C19.6128 17.3857 19.1553 17.8533 18.8719 18.4282L18.3595 19.4696C18.1785 19.4239 17.9992 19.3713 17.822 19.3118C16.9039 19.0022 15.6289 18.3651 14.3287 17.0456C13.0285 15.7261 12.4007 14.4322 12.0956 13.499C12.0237 13.2781 11.9619 13.0539 11.9105 12.8272H11.909Z" fill="white"/>
</svg>
